<svg width="42" height="42" viewBox="0 0 42 42" fill="none" xmlns="http://www.w3.org/2000/svg">
<g id="game-icons:mine-explosion">
<path id="Vector" d="M23.5911 1.25391L23.8785 10.3563L26.4656 1.25391H23.5911ZM15.7342 1.27343L15.5906 20.6367L1.60156 17.0822L10.704 30.9815L3.42208 30.557L12.8091 39.7738L9.16148 33.5504L15.3314 34.2061L11.0864 25.1876L20.1192 31.7465L19.0827 16.5518L19.0829 16.5521L25.2526 30.5441L31.4719 23.1654L30.9289 35.846L35.8649 32.5665L34.1925 39.0869L40.4069 27.3739L34.1787 27.533L39.9755 12.7853L29.1965 18.7801L28.1904 7.32118L22.8248 18.8331L15.7344 1.27351H15.7342V1.27343ZM3.73273 3.61624L3.22841 6.22853L12.6563 17.8819H12.6564L6.2908 4.19612L3.73265 3.61616L3.73273 3.61624ZM38.3721 5.64865L35.814 6.22861L32.2261 15.0363L38.8762 8.26134L38.372 5.64865H38.3721ZM22.9038 33.1077C19.6082 33.1077 16.9395 35.7768 16.9395 39.0722C16.9395 39.5418 16.9917 39.9504 17.0943 40.3888C17.689 37.7191 20.0554 35.7413 22.9038 35.7413C25.7601 35.7413 28.1269 37.7076 28.7132 40.3889C28.8131 39.956 28.8681 39.5354 28.8681 39.0723C28.8681 35.7767 26.1991 33.1078 22.9036 33.1078L22.9038 33.1077Z" fill="#04324E"/>
</g>
</svg>
