<svg width="48" height="48" viewBox="0 0 48 48" fill="none" xmlns="http://www.w3.org/2000/svg">
<g id="icon-park-outline:brain">
<g id="Group">
<path id="Vector" d="M19.0358 44C18.0558 40.805 16.5778 38.422 14.6008 36.853C11.6358 34.5 6.92477 35.963 5.18477 33.535C3.44477 31.107 6.40377 26.643 7.44177 24.009C8.48077 21.375 3.46177 20.444 4.04777 19.696C4.43777 19.197 6.97477 17.759 11.6568 15.38C12.9868 7.794 17.8998 4 26.3978 4C39.1438 4 43.9998 14.806 43.9998 21.68C43.9998 28.552 38.1198 35.956 29.7438 37.553C28.9948 38.643 30.0748 40.793 32.9838 44" stroke="#04324E" stroke-width="4.667" stroke-linecap="round" stroke-linejoin="round"/>
<path id="Vector_2" d="M19.4993 14.5009C18.8453 17.0349 19.0393 18.8149 20.0823 19.8399C21.1243 20.8639 22.9003 21.5349 25.4103 21.8499C24.8403 25.1189 25.5353 26.6519 27.4933 26.4499C29.4513 26.2489 30.6283 25.4349 31.0233 24.0099C34.0833 24.8699 35.7423 24.1499 35.9993 21.8499C36.3843 18.3999 34.5243 15.6489 33.7613 15.6489C32.9993 15.6489 31.0233 15.5559 31.0233 14.5009C31.0233 13.4459 28.7153 12.8509 26.6323 12.8509C24.5493 12.8509 25.8023 11.4459 22.9423 12.0009C21.0353 12.3709 19.8873 13.2039 19.4993 14.5009Z" stroke="#04324E" stroke-width="4" stroke-linejoin="round"/>
<path id="Vector_3" d="M30.5001 25.5C29.4831 26.131 28.0881 27.18 27.5001 28C26.0311 30.05 24.8401 31.298 24.5801 32.608" stroke="#04324E" stroke-width="4" stroke-linecap="round"/>
</g>
</g>
</svg>
