<svg xmlns="http://www.w3.org/2000/svg" width="152" height="133" viewBox="0 0 152 133" fill="none">
  <path d="M20.22 113.278C20.22 111.743 21.114 110.586 22.8091 110.586C23.9169 110.586 24.8676 111.088 25.0376 112.157H24.1153C23.9891 111.56 23.4661 111.31 22.8375 111.31C21.6653 111.31 21.132 112.173 21.132 113.281C21.132 114.389 21.6782 115.252 22.7628 115.252C23.4867 115.252 24.0174 114.904 24.2596 114.507V113.791H22.8504V113.098H25.1072V115.88H24.3188V115.326H24.2828C23.9814 115.674 23.4867 115.968 22.6803 115.968C21.0805 115.968 20.2148 114.788 20.2148 113.283L20.22 113.278Z" fill="#04324E"/>
  <path d="M25.9473 113.991C25.9473 112.847 26.7073 112.043 27.9104 112.043C29.1135 112.043 29.8658 112.847 29.8658 113.991C29.8658 115.134 29.1135 115.938 27.9104 115.938C26.7073 115.938 25.9473 115.134 25.9473 113.991ZM27.9104 115.268C28.5673 115.268 28.9795 114.738 28.9795 113.991C28.9795 113.244 28.5673 112.721 27.9104 112.721C27.2534 112.721 26.8412 113.244 26.8412 113.991C26.8412 114.738 27.2534 115.268 27.9104 115.268Z" fill="#04324E"/>
  <path d="M30.1855 112.325V112.191H31.0409L31.7133 113.977C31.8524 114.337 31.9864 114.788 32.0533 115.097H32.0817C32.1487 114.781 32.2723 114.353 32.4063 113.977L33.071 112.191H33.867V112.331L32.4578 115.886H31.6025L30.1855 112.323V112.325Z" fill="#04324E"/>
  <path d="M34.1992 114.022C34.1992 112.929 34.8845 112.043 36.1185 112.043C37.2109 112.043 37.9477 112.736 37.9477 113.991V114.184H35.0855C35.137 114.869 35.5054 115.292 36.1469 115.292C36.6699 115.292 36.9945 115.011 37.046 114.65H37.9245C37.8215 115.426 37.1284 115.941 36.1314 115.941C34.8613 115.941 34.1992 115.101 34.1992 114.022ZM37.0615 113.571C36.9739 112.965 36.5977 112.684 36.1108 112.684C35.6239 112.684 35.2246 112.986 35.1061 113.571H37.0615Z" fill="#04324E"/>
  <path d="M38.8301 112.162H39.5154L39.5823 112.827H39.5978C39.9147 112.34 40.4609 112.09 41.1101 112.141V112.953C40.4686 112.878 39.9379 113.092 39.6854 113.543V115.859H38.8301V112.162Z" fill="#04324E"/>
  <path d="M41.9473 112.196H42.6326L42.6918 112.667H42.715C42.9597 112.335 43.3797 112.098 43.9465 112.098C44.9641 112.098 45.3789 112.829 45.3789 113.625V115.89H44.5158V113.736C44.5158 113.087 44.2427 112.822 43.7481 112.822C43.2844 112.822 42.9443 113.066 42.8026 113.345V115.89H41.9473V112.193V112.196Z" fill="#04324E"/>
  <path d="M46.373 112.196H47.0583L47.1176 112.667H47.1408C47.3701 112.327 47.7977 112.098 48.2846 112.098C48.8231 112.098 49.2069 112.363 49.3976 112.703H49.4259C49.7351 112.311 50.1267 112.098 50.6445 112.098C51.5823 112.098 52.0022 112.77 52.0022 113.566V115.89H51.1391V113.646C51.1391 113.092 50.9176 112.819 50.4667 112.819C50.0468 112.819 49.7428 113.069 49.6114 113.342V115.887H48.7561V113.615C48.7561 113.092 48.5345 112.819 48.0991 112.819C47.6638 112.819 47.3623 113.069 47.2284 113.342V115.887H46.373V112.19V112.196Z" fill="#04324E"/>
  <path d="M52.9277 114.022C52.9277 112.929 53.613 112.043 54.8471 112.043C55.9394 112.043 56.6762 112.736 56.6762 113.991V114.184H53.814C53.8655 114.869 54.2339 115.292 54.8754 115.292C55.3984 115.292 55.723 115.011 55.7745 114.65H56.653C56.55 115.426 55.857 115.941 54.8599 115.941C53.5898 115.941 52.9277 115.101 52.9277 114.022ZM55.79 113.571C55.7024 112.965 55.3262 112.684 54.8393 112.684C54.3524 112.684 53.9531 112.986 53.8346 113.571H55.79Z" fill="#04324E"/>
  <path d="M57.4453 112.196H58.1306L58.1899 112.667H58.213C58.4578 112.335 58.8777 112.098 59.4445 112.098C60.4621 112.098 60.8769 112.829 60.8769 113.625V115.89H60.0139V113.736C60.0139 113.087 59.7408 112.822 59.2461 112.822C58.7824 112.822 58.4423 113.066 58.3006 113.345V115.89H57.4453V112.193V112.196Z" fill="#04324E"/>
  <path d="M62.2576 114.681V112.821H61.5723V112.18H62.2576V111.146H63.1129V112.18H64.146V112.821H63.1129V114.65C63.1129 115.062 63.2391 115.212 63.556 115.212H64.1305V115.877H63.386C62.5229 115.877 62.2576 115.5 62.2576 114.681Z" fill="#04324E"/>
  <path d="M68.4811 111.396H66.6133V110.68H71.2403V111.396H69.3673V115.868H68.4811V111.396Z" fill="#04324E"/>
  <path d="M71.543 112.162H72.2282L72.2952 112.827H72.3107C72.6276 112.34 73.1737 112.09 73.823 112.141V112.953C73.1815 112.878 72.6508 113.092 72.3983 113.543V115.859H71.543V112.162Z" fill="#04324E"/>
  <path d="M74.25 114.774C74.25 113.875 75.0255 113.638 75.94 113.638H76.7284V113.416C76.7284 112.937 76.4991 112.7 76.0276 112.7C75.5922 112.7 75.2831 112.891 75.2444 113.246H74.3737C74.4561 112.411 75.162 112.043 76.0199 112.043C76.986 112.043 77.5914 112.514 77.5914 113.416V115.851H76.8907L76.8469 115.364H76.8185C76.5738 115.719 76.1771 115.938 75.5871 115.938C74.8271 115.938 74.2526 115.562 74.2526 114.771L74.25 114.774ZM75.7545 115.289C76.2337 115.289 76.597 115.031 76.7284 114.727V114.212H76.0637C75.5691 114.212 75.1053 114.271 75.1053 114.758C75.1053 115.15 75.4067 115.289 75.7545 115.289Z" fill="#04324E"/>
  <path d="M78.6738 112.196H79.3591L79.4184 112.667H79.4416C79.6863 112.335 80.1062 112.098 80.673 112.098C81.6906 112.098 82.1054 112.829 82.1054 113.625V115.89H81.2424V113.736C81.2424 113.087 80.9693 112.822 80.4746 112.822C80.0109 112.822 79.6708 113.066 79.5291 113.345V115.89H78.6738V112.193V112.196Z" fill="#04324E"/>
  <path d="M82.9141 114.722H83.7694C83.8054 115.129 84.1172 115.32 84.6402 115.32C85.1631 115.32 85.4233 115.129 85.4233 114.789C85.4233 114.532 85.261 114.382 84.7509 114.331L84.2872 114.287C83.4525 114.207 83.0326 113.852 83.0326 113.21C83.0326 112.435 83.6457 112.043 84.5886 112.043C85.4156 112.043 86.1241 112.344 86.1833 113.195H85.3641C85.3203 112.818 85.0395 112.664 84.5758 112.664C84.112 112.664 83.8595 112.834 83.8595 113.143C83.8595 113.401 84.0296 113.535 84.4804 113.571L84.9596 113.614C85.8587 113.694 86.2581 114.05 86.2581 114.707C86.2581 115.503 85.6449 115.938 84.6196 115.938C83.5942 115.938 82.945 115.518 82.9141 114.72V114.722Z" fill="#04324E"/>
  <path d="M87.1328 112.154H87.8181L87.8774 112.648H87.9005C88.1659 112.265 88.6013 112.043 89.1835 112.043C90.3197 112.043 90.9689 112.906 90.9689 113.983C90.9689 115.06 90.2527 115.938 89.1475 115.938C88.6167 115.938 88.2097 115.753 87.9753 115.475H87.9598C87.983 115.755 87.9881 115.998 87.9881 116.345V117.327H87.1328V112.154ZM89.029 115.261C89.722 115.261 90.0852 114.699 90.0852 113.983C90.0852 113.267 89.7297 112.728 89.029 112.728C88.5652 112.728 88.1736 112.973 87.9804 113.349V114.655C88.1144 114.957 88.5111 115.261 89.029 115.261Z" fill="#04324E"/>
  <path d="M91.6699 114.774C91.6699 113.875 92.4454 113.638 93.36 113.638H94.1483V113.416C94.1483 112.937 93.919 112.7 93.4475 112.7C93.0122 112.7 92.703 112.891 92.6644 113.246H91.7936C91.8735 112.411 92.5819 112.043 93.4398 112.043C94.4059 112.043 95.0113 112.514 95.0113 113.416V115.851H94.3106L94.2668 115.364H94.2359C93.9911 115.719 93.5944 115.938 93.0044 115.938C92.2444 115.938 91.6699 115.562 91.6699 114.771V114.774ZM93.1745 115.289C93.6536 115.289 94.0143 115.031 94.1483 114.727V114.212H93.4836C92.989 114.212 92.5252 114.271 92.5252 114.758C92.5252 115.15 92.8267 115.289 93.1745 115.289Z" fill="#04324E"/>
  <path d="M96.0957 112.162H96.781L96.848 112.827H96.8634C97.1803 112.34 97.7265 112.09 98.3757 112.141V112.953C97.7342 112.878 97.2035 113.092 96.951 113.543V115.859H96.0957V112.162Z" fill="#04324E"/>
  <path d="M98.709 114.022C98.709 112.929 99.3943 112.043 100.628 112.043C101.721 112.043 102.457 112.736 102.457 113.991V114.184H99.5952C99.6467 114.869 100.015 115.292 100.657 115.292C101.18 115.292 101.504 115.011 101.556 114.65H102.434C102.331 115.426 101.638 115.941 100.641 115.941C99.3711 115.941 98.709 115.101 98.709 114.022ZM101.571 113.571C101.484 112.965 101.107 112.684 100.618 112.684C100.129 112.684 99.7318 112.986 99.6158 113.571H101.571Z" fill="#04324E"/>
  <path d="M103.34 112.196H104.025L104.084 112.667H104.108C104.352 112.335 104.772 112.098 105.339 112.098C106.357 112.098 106.771 112.829 106.771 113.625V115.89H105.908V113.736C105.908 113.087 105.635 112.822 105.141 112.822C104.677 112.822 104.337 113.066 104.195 113.345V115.89H103.34V112.193V112.196Z" fill="#04324E"/>
  <path d="M107.559 113.998C107.559 112.847 108.311 112.043 109.514 112.043C110.511 112.043 111.189 112.605 111.299 113.437H110.405C110.338 113.009 110.014 112.721 109.511 112.721C108.826 112.721 108.45 113.267 108.45 113.998C108.45 114.73 108.857 115.268 109.519 115.268C110.029 115.268 110.359 114.959 110.405 114.524H111.299C111.212 115.402 110.503 115.941 109.514 115.941C108.319 115.941 107.559 115.145 107.559 114.001V113.998Z" fill="#04324E"/>
  <path d="M112.478 117.176L113.009 115.886L111.592 112.331V112.191H112.447L113.104 113.941C113.243 114.317 113.377 114.737 113.444 115.1H113.46C113.547 114.739 113.702 114.296 113.82 113.956L114.469 112.194H115.273V112.333L113.295 117.328H112.475V117.182L112.478 117.176Z" fill="#04324E"/>
  <path d="M117.529 115.711L119.632 110.68H120.554L122.7 115.711V115.866H121.801L121.211 114.39H118.967L118.385 115.866H117.529V115.711ZM120.938 113.696L120.422 112.414C120.304 112.112 120.193 111.808 120.09 111.514H120.067C119.972 111.803 119.853 112.128 119.742 112.414L119.24 113.696H120.938Z" fill="#04324E"/>
  <path d="M123.262 112.154H123.947L124.006 112.648H124.029C124.295 112.265 124.73 112.043 125.312 112.043C126.449 112.043 127.098 112.906 127.098 113.983C127.098 115.06 126.382 115.938 125.276 115.938C124.746 115.938 124.339 115.753 124.104 115.475H124.089C124.112 115.755 124.117 115.998 124.117 116.345V117.327H123.262V112.154ZM125.158 115.261C125.851 115.261 126.214 114.699 126.214 113.983C126.214 113.267 125.859 112.728 125.158 112.728C124.694 112.728 124.303 112.973 124.109 113.349V114.655C124.243 114.957 124.64 115.261 125.158 115.261Z" fill="#04324E"/>
  <path d="M128.006 112.154H128.691L128.75 112.648H128.774C129.039 112.265 129.474 112.043 130.057 112.043C131.193 112.043 131.842 112.906 131.842 113.983C131.842 115.06 131.126 115.938 130.021 115.938C129.49 115.938 129.083 115.753 128.848 115.475H128.833C128.856 115.755 128.861 115.998 128.861 116.345V117.327H128.006V112.154ZM129.902 115.261C130.595 115.261 130.958 114.699 130.958 113.983C130.958 113.267 130.603 112.728 129.902 112.728C129.438 112.728 129.047 112.973 128.853 113.349V114.655C128.987 114.957 129.384 115.261 129.902 115.261Z" fill="#04324E"/>
  <path d="M11.4453 96.8781C11.4453 91.7126 14.4956 87.9023 20.0526 87.9023C23.7418 87.9023 27.1348 89.6001 27.8252 93.8303H24.7749C24.2082 91.2 22.1188 90.3395 20.0526 90.3395C16.3145 90.3395 14.4956 93.364 14.4956 96.8806C14.4956 100.397 16.3634 103.399 20.0526 103.399C22.7088 103.399 24.4555 101.922 24.8239 99.882H27.8742C27.4311 103.326 24.6023 105.833 20.0526 105.833C14.4956 105.833 11.4453 102.046 11.4453 96.8806V96.8781Z" fill="#04324E"/>
  <path d="M30.2656 93.4277H32.3318V103.859H39.0121V105.528H30.2682V93.4277H30.2656Z" fill="#04324E" stroke="#04324E" stroke-width="0.350373" stroke-miterlimit="10"/>
  <path d="M41.1328 93.4277H49.7917V95.0817H43.199V98.5932H49.2249V100.229H43.199V103.88H49.9643V105.534H41.1328V93.4329V93.4277Z" fill="#04324E" stroke="#04324E" stroke-width="0.350373" stroke-miterlimit="10"/>
  <path d="M51.1061 105.168L56.0113 93.4277H58.1625L63.1708 105.168V105.528H61.0711L59.6928 102.087H54.4604L53.1001 105.528H51.1035V105.168H51.1061ZM59.059 100.469L57.8533 97.4725C57.5777 96.7666 57.3201 96.0607 57.0779 95.3728H57.0264C56.8022 96.0452 56.5266 96.8026 56.2689 97.4725L55.0993 100.469H59.059Z" fill="#04324E" stroke="#04324E" stroke-width="0.350373" stroke-miterlimit="10"/>
  <path d="M64.7891 93.4277H69.6428C72.2242 93.4277 74.3084 94.2367 74.3084 96.9727C74.3084 99.0723 73.1207 100.072 71.5028 100.433L74.6871 105.168V105.528H72.5359L69.3851 100.708H66.8552V105.528H64.7891V93.4277ZM69.4186 99.0569C71.4668 99.0569 72.2577 98.5416 72.2577 97.0268C72.2577 95.615 71.3972 95.0817 69.4701 95.0817H66.8527V99.0569H69.4186Z" fill="#04324E" stroke="#04324E" stroke-width="0.350373" stroke-miterlimit="10"/>
  <path d="M76.6666 100.201H79.7659C79.8148 101.948 81.2653 103.571 84.0708 103.571C86.5544 103.571 88.0538 102.538 88.0538 100.619C88.0538 98.8721 86.7991 98.2589 84.684 98.0116L82.7647 97.7643C79.2712 97.347 77.1819 95.8965 77.1819 92.9183C77.1819 89.6465 79.7144 87.9023 83.723 87.9023C87.3144 87.9023 90.411 89.3785 90.6815 93.1167H87.657C87.5102 91.2489 86.034 90.1643 83.6973 90.1643C81.3606 90.1643 80.0828 91.1227 80.0828 92.7225C80.0828 94.3224 81.3374 94.8634 83.2799 95.1082L85.1735 95.3529C88.8138 95.8192 91.0757 97.1718 91.0757 100.346C91.0757 103.862 88.4453 105.831 84.0167 105.831C79.5881 105.831 76.7877 103.667 76.6641 100.199L76.6666 100.201Z" fill="#04324E"/>
  <path d="M93.6543 93.4277H98.4745C101.247 93.4277 103.156 94.3913 103.156 97.1814C103.156 99.9715 101.141 101.09 98.4049 101.09H95.7205V105.531H93.6543V93.4303V93.4277ZM98.1988 99.4176C100.265 99.4176 101.107 98.6782 101.107 97.1968C101.107 95.7155 100.213 95.0791 98.2504 95.0791H95.7205V99.4176H98.1988Z" fill="#04324E" stroke="#04324E" stroke-width="0.350373" stroke-miterlimit="10"/>
  <path d="M105.23 93.4277H113.889V95.0817H107.297V98.5932H113.323V100.229H107.297V103.88H114.062V105.534H105.23V93.4329V93.4277Z" fill="#04324E" stroke="#04324E" stroke-width="0.350373" stroke-miterlimit="10"/>
  <path d="M116.51 93.4277H119.006L123.826 100.417C124.378 101.226 124.756 101.847 125.066 102.535H125.135C125.066 101.502 125.05 100.245 125.05 99.178V93.4277H127.029V105.528H124.963L119.712 97.9542C119.248 97.2818 118.8 96.5785 118.473 95.8546H118.403C118.473 96.7846 118.506 98.2299 118.506 99.3145V105.528H116.51V93.4277Z" fill="#04324E" stroke="#04324E" stroke-width="0.350373" stroke-miterlimit="10"/>
  <path d="M129.99 93.4277H133.829C137.995 93.4277 140.576 95.3548 140.576 99.3841C140.576 103.413 138.062 105.528 133.829 105.528H129.99V93.4277ZM133.88 103.877C136.841 103.877 138.443 102.259 138.443 99.366C138.443 96.0942 136.619 95.0791 133.589 95.0791H132.056V103.875H133.88V103.877Z" fill="#04324E" stroke="#04324E" stroke-width="0.350373" stroke-miterlimit="10"/>
  <path d="M60.4473 46.4038V48.8152H62.3073C68.1967 48.8152 72.9705 44.0413 72.9705 38.152V34.5117H72.3393C65.7724 34.5117 60.4498 39.8343 60.4498 46.4012L60.4473 46.4038Z" fill="#04324E"/>
  <path d="M72.346 26.2959H72.9514C72.5856 20.7389 67.9637 16.3438 62.314 16.3438H50.3858C44.4965 16.3438 39.7227 21.1176 39.7227 27.0069V38.1416C39.7227 44.0309 44.4965 48.8048 50.3858 48.8048H52.2459V46.3934C52.2459 35.2948 61.2448 26.2959 72.3434 26.2959H72.346Z" fill="#04324E"/>
  <path d="M72.9678 34.5225H79.9031C85.2566 34.5225 89.7677 38.1936 91.0584 43.1478C91.0996 43.3075 91.2413 43.4209 91.4062 43.4209H99.0397C99.2612 43.4209 99.4313 43.2251 99.3978 43.0061C97.9293 33.5641 89.7496 26.3145 79.9005 26.3145H72.9395C72.9549 26.5489 72.9652 26.7859 72.9652 27.0255V34.5225H72.9678Z" fill="#04324E"/>
  <path d="M78.8675 64.5462H72.2928C65.7259 64.5462 60.4033 59.2237 60.4033 52.6567V48.7949H52.1953V52.6567C52.1953 63.7553 61.1942 72.7542 72.2928 72.7542H78.8932C78.8778 72.5198 78.8675 72.2828 78.8675 72.0432V64.5462Z" fill="#04324E"/>
  <path d="M101.468 50.25H89.5401C83.6508 50.25 78.877 55.0238 78.877 60.9132V64.5535H79.8688C85.2223 64.5535 89.7334 60.8823 91.0241 55.9281C91.0653 55.7684 91.207 55.655 91.3719 55.655H99.0054C99.2269 55.655 99.397 55.8508 99.3635 56.0698C97.895 65.5118 89.7153 72.7615 79.8662 72.7615H78.9001C79.266 78.3185 83.8878 82.7136 89.5376 82.7136H101.466C107.355 82.7136 112.129 77.9398 112.129 72.0504V60.9158C112.129 55.0264 107.355 50.2526 101.466 50.2526L101.468 50.25Z" fill="#04324E"/>
</svg>