<svg width="48" height="48" viewBox="0 0 48 48" fill="none" xmlns="http://www.w3.org/2000/svg">
<g id="emojione-monotone:fog">
<path id="Vector" d="M1.5 22.2239C13.3298 12.7447 18.996 22.5629 26.0993 22.5629C31.761 22.5629 38.691 12.7102 46.5 20.7959C37.5382 16.4849 34.2585 25.6529 25.0035 25.6529C17.8125 25.6522 15.111 17.1532 1.5 22.2239Z" fill="#04324E"/>
<path id="Vector_2" d="M46.5 29.7795C39.5978 24.0952 35.1533 28.7137 29.4563 31.107C25.8495 32.6212 22.1085 32.2177 18.378 28.2667C21.054 29.2327 26.9662 32.4885 32.8185 26.7795C27.7747 29.0175 21.4807 27.435 16.4122 24.9075C10.8352 22.1272 6.1905 21.657 1.5 26.7787C4.45725 24.555 8.72025 25.0792 12 25.953C9.864 26.0317 5.32875 26.5312 1.5 32.451C13.0807 22.8585 17.253 36 26.3115 36C35.0903 36 34.3095 26.154 46.5 29.7795ZM1.5 18.9517C2.91225 14.8815 12.9255 9.07275 20.8342 19.02C9.78075 13.9237 1.5 18.9517 1.5 18.9517ZM31.6012 14.8747C36.243 9.74549 43.6642 12.5452 46.5 15.0855C44.2057 14.82 37.1452 13.3177 34.1062 16.5517C29.3092 21.657 23.688 20.9212 21.9172 19.0642C21.9172 19.0642 27.6255 19.2667 31.6012 14.8747Z" fill="#04324E"/>
<path id="Vector_3" d="M34.0391 26.5326C40.0113 16.5861 46.5003 24.9419 46.5003 24.9419C39.4196 22.4819 34.0391 26.5326 34.0391 26.5326Z" fill="#04324E"/>
</g>
</svg>
